# xmcd
#
# Track frame offsets:
#	180
#	18676
#	42007
#	65675
#	79247
#	95065
#	113036
#	127193
#	143800
#	157787
#	175339
#
# Disc length: 2499 seconds
#
# Revision: 0
# Processed by: cddbd v1.5.1PL0 Copyright (c) Steve Scherf et al.
# Submitted via: dBpowerAMP V4.0
#
DISCID=9509c10b
DTITLE=Jack Semple - Grey And Yellow
DYEAR=1995
DGENRE=Blues
TTITLE0=Sunrise Of Hope
TTITLE1=Grey And Yellow
TTITLE2=Dulcinea
TTITLE3=Arkansas Affair
TTITLE4=Open Joni
TTITLE5=Gypsy Strings
TTITLE6=Infinity
TTITLE7=John The Accordian Man
TTITLE8=King Arthur's Psalm
TTITLE9=Amber
TTITLE10=Seascape
EXTD=Blues
EXTT0=
EXTT1=
EXTT2=
EXTT3=
EXTT4=
EXTT5=
EXTT6=
EXTT7=
EXTT8=
EXTT9=
EXTT10=
PLAYORDER=
